<svg width="56" height="58" viewBox="0 0 56 58" fill="none" xmlns="http://www.w3.org/2000/svg">
<path fill-rule="evenodd" clip-rule="evenodd" d="M28.0292 0.440491C12.7861 0.440491 0.429199 13.2077 0.429199 28.9569C0.429199 44.7062 12.7861 57.4734 28.0292 57.4734C43.2723 57.4734 55.6292 44.7062 55.6292 28.9569C55.6292 13.2077 43.2723 0.440491 28.0292 0.440491ZM21.961 13.8401C23.5311 13.7662 24.0328 13.7482 28.0306 13.7482H28.026C32.025 13.7482 32.5248 13.7662 34.095 13.8401C35.6621 13.9142 36.7323 14.1705 37.6707 14.5466C38.6398 14.9348 39.4586 15.4544 40.2774 16.3004C41.0962 17.1458 41.5992 17.9943 41.9764 18.9946C42.3383 19.9617 42.5867 21.0668 42.6603 22.686C42.7308 24.3082 42.7492 24.8266 42.7492 28.9571C42.7492 33.0876 42.7308 33.6047 42.6603 35.227C42.5867 36.8455 42.3383 37.951 41.9764 38.9183C41.5992 39.9183 41.0962 40.7668 40.2774 41.6122C39.4595 42.4582 38.6395 42.9791 37.6717 43.3676C36.7351 43.7437 35.6642 44 34.0971 44.0742C32.527 44.148 32.0268 44.166 28.0287 44.166C24.0313 44.166 23.5299 44.148 21.9597 44.0742C20.393 44 19.323 43.7437 18.3864 43.3676C17.4189 42.9791 16.5976 42.4582 15.7797 41.6122C14.9612 40.7668 14.4583 39.9183 14.082 38.918C13.7183 37.951 13.4702 36.8458 13.3981 35.2267C13.327 33.6044 13.3092 33.0876 13.3092 28.9571C13.3092 24.8266 13.3276 24.3079 13.3978 22.6856C13.4684 21.0672 13.7168 19.9617 14.0817 18.9943C14.4589 17.9943 14.9618 17.1458 15.7807 16.3004C16.5988 15.4547 17.4201 14.9351 18.3883 14.5466C19.3242 14.1705 20.3939 13.9142 21.961 13.8401Z" fill="#60BF7D"/>
<path fill-rule="evenodd" clip-rule="evenodd" d="M26.7101 16.489C26.9665 16.4886 27.2423 16.4887 27.54 16.4888L28.0306 16.489C31.9609 16.489 32.4267 16.5035 33.9788 16.5764C35.414 16.6442 36.1929 16.892 36.7118 17.1002C37.3987 17.3758 37.8885 17.7054 38.4034 18.2377C38.9186 18.77 39.2375 19.277 39.505 19.9867C39.7064 20.5222 39.9466 21.327 40.0119 22.8099C40.0824 24.4131 40.0977 24.8948 40.0977 28.9536C40.0977 33.0125 40.0824 33.4941 40.0119 35.0974C39.9463 36.5803 39.7064 37.3851 39.505 37.9206C39.2381 38.6303 38.9186 39.1357 38.4034 39.6677C37.8882 40.2 37.3991 40.5295 36.7118 40.8052C36.1935 41.0143 35.414 41.2615 33.9788 41.3293C32.427 41.4022 31.9609 41.418 28.0306 41.418C24.1 41.418 23.6342 41.4022 22.0824 41.3293C20.6472 41.2608 19.8683 41.0131 19.3491 40.8049C18.6621 40.5292 18.1715 40.1997 17.6563 39.6674C17.1411 39.1351 16.8221 38.6294 16.5547 37.9193C16.3532 37.3838 16.1131 36.579 16.0478 35.0962C15.9772 33.4929 15.9631 33.0113 15.9631 28.9498C15.9631 24.8884 15.9772 24.4093 16.0478 22.8061C16.1134 21.3232 16.3532 20.5184 16.5547 19.9823C16.8215 19.2725 17.1411 18.7656 17.6563 18.2332C18.1715 17.7009 18.6621 17.3714 19.3491 17.0951C19.868 16.886 20.6472 16.6388 22.0824 16.5707C23.4404 16.5073 23.9666 16.4883 26.7101 16.4852V16.489ZM35.8881 19.0143C34.9129 19.0143 34.1217 19.8308 34.1217 20.8387C34.1217 21.8463 34.9129 22.6638 35.8881 22.6638C36.8633 22.6638 37.6545 21.8463 37.6545 20.8387C37.6545 19.8311 36.8633 19.0137 35.8881 19.0137V19.0143ZM20.4712 28.9571C20.4712 24.6439 23.8557 21.1469 28.0303 21.1467C32.205 21.1467 35.5888 24.6438 35.5888 28.9571C35.5888 33.2704 32.2053 36.766 28.0306 36.766C23.8559 36.766 20.4712 33.2704 20.4712 28.9571Z" fill="#60BF7D"/>
<path d="M28.0306 23.8875C30.7404 23.8875 32.9373 26.1571 32.9373 28.9571C32.9373 31.7568 30.7404 34.0267 28.0306 34.0267C25.3206 34.0267 23.1239 31.7568 23.1239 28.9571C23.1239 26.1571 25.3206 23.8875 28.0306 23.8875Z" fill="#60BF7D"/>
</svg>
