<svg width="57" height="58" viewBox="0 0 57 58" fill="none" xmlns="http://www.w3.org/2000/svg">
<path fill-rule="evenodd" clip-rule="evenodd" d="M28.4293 0.440491C13.1863 0.440491 0.829346 13.2077 0.829346 28.9569C0.829346 44.7062 13.1863 57.4734 28.4293 57.4734C43.6724 57.4734 56.0293 44.7062 56.0293 28.9569C56.0293 13.2077 43.6724 0.440491 28.4293 0.440491ZM14.0792 24.0591H20.334V43.4761H14.0792V24.0591ZM20.7459 18.0526C20.7053 16.1488 19.3876 14.6987 17.2479 14.6987C15.1082 14.6987 13.7093 16.1488 13.7093 18.0526C13.7093 19.917 15.0669 21.4088 17.1667 21.4088H17.2067C19.3876 21.4088 20.7459 19.917 20.7459 18.0526ZM35.6895 23.6031C39.8054 23.6031 42.891 26.3789 42.891 32.3429L42.8908 43.4761H36.6363V33.088C36.6363 30.4787 35.7312 28.6982 33.4669 28.6982C31.7389 28.6982 30.7097 29.8985 30.2576 31.0578C30.0922 31.4733 30.0516 32.0522 30.0516 32.6325V43.4766H23.7961C23.7961 43.4766 23.8786 25.8816 23.7961 24.0596H30.0516V26.8098C30.8818 25.4877 32.3686 23.6031 35.6895 23.6031Z" fill="#60BF7D"/>
</svg>
