<svg width="56" height="58" viewBox="0 0 56 58" fill="none" xmlns="http://www.w3.org/2000/svg">
<path fill-rule="evenodd" clip-rule="evenodd" d="M0.229248 29.0471C0.229248 44.7963 12.5862 57.5636 27.8292 57.5636C43.0723 57.5636 55.4292 44.7963 55.4292 29.0471C55.4292 13.2979 43.0723 0.53064 27.8292 0.53064C12.5862 0.53064 0.229248 13.2979 0.229248 29.0471ZM42.0265 29.2049C42.0265 30.2592 41.9157 31.2853 41.7028 32.2761C42.2446 33.3868 42.5492 34.6368 42.5492 35.9608C42.5492 40.5412 38.9039 44.2559 34.4069 44.2559C33.0134 44.2559 31.7048 43.898 30.5572 43.2703C29.7229 43.4272 28.8644 43.5101 27.985 43.5101C20.2304 43.5101 13.9436 37.1068 13.9436 29.2049C13.9436 28.2211 14.0422 27.2585 14.2274 26.3312C13.5178 25.097 13.1092 23.6654 13.1092 22.1351C13.1092 17.5513 16.7546 13.8383 21.2534 13.8383C22.8441 13.8383 24.3293 14.3055 25.5842 15.1112C26.3666 14.9737 27.168 14.9014 27.985 14.9014C35.7414 14.9014 42.0265 21.3065 42.0265 29.2049Z" fill="#60BF7D"/>
<path d="M35.1875 36.0419C34.5384 36.9799 33.5795 37.7203 32.3332 38.2457C31.1025 38.7676 29.6277 39.0338 27.9469 39.0338C25.9304 39.0338 24.2392 38.6724 22.9185 37.9584C21.9752 37.44 21.198 36.7383 20.6077 35.8674C20.0105 34.9929 19.7094 34.1238 19.7094 33.2828C19.7094 32.7609 19.9067 32.3061 20.2944 31.9341C20.6787 31.5638 21.172 31.3787 21.7605 31.3787C22.2417 31.3787 22.6589 31.5251 22.9964 31.816C23.3201 32.0963 23.5971 32.5106 23.8204 33.0413C24.0696 33.6231 24.3396 34.1132 24.6252 34.4958C24.9022 34.8695 25.2986 35.1816 25.804 35.4266C26.3129 35.6699 27.0001 35.7969 27.8431 35.7969C29.0046 35.7969 29.9566 35.543 30.6715 35.0458C31.3725 34.561 31.7118 33.9757 31.7118 33.2599C31.7118 32.6975 31.5335 32.2532 31.17 31.9041C30.7857 31.5409 30.282 31.2588 29.671 31.0614C29.0322 30.8604 28.1668 30.64 27.0953 30.4108C25.6361 30.0935 24.3985 29.718 23.4153 29.2895C22.4079 28.8541 21.5961 28.2494 21.0024 27.493C20.4 26.7226 20.0936 25.7582 20.0936 24.6246C20.0936 23.5456 20.4138 22.5706 21.0474 21.7314C21.674 20.8975 22.5914 20.2452 23.7736 19.8027C24.9385 19.3637 26.3233 19.1415 27.8933 19.1415C29.1465 19.1415 30.2491 19.2896 31.17 19.5823C32.096 19.875 32.875 20.2699 33.4877 20.7582C34.1057 21.2519 34.5661 21.7755 34.8534 22.322C35.1442 22.8739 35.2931 23.4222 35.2931 23.9528C35.2931 24.4641 35.0992 24.9296 34.7167 25.3333C34.3324 25.7423 33.846 25.9486 33.2748 25.9486C32.7555 25.9486 32.347 25.8181 32.0666 25.5643C31.8035 25.3262 31.53 24.956 31.2271 24.4271C30.8774 23.7501 30.4534 23.2159 29.967 22.8386C29.4944 22.4719 28.7068 22.2885 27.6215 22.2885C26.6176 22.2885 25.7971 22.4931 25.1895 22.9003C24.6045 23.2899 24.3189 23.7395 24.3189 24.272C24.3189 24.5964 24.4106 24.8696 24.601 25.1023C24.7983 25.3527 25.0805 25.5678 25.4371 25.7511C25.8058 25.9398 26.1866 26.0914 26.5674 26.1972C26.9568 26.3083 27.6111 26.4722 28.5095 26.6838C29.6467 26.9306 30.6905 27.2109 31.6131 27.5124C32.5495 27.8156 33.3562 28.1894 34.0174 28.6284C34.689 29.0745 35.2204 29.6457 35.5995 30.3297C35.9785 31.0191 36.1707 31.8653 36.1707 32.8509C36.1707 34.0286 35.8383 35.1023 35.1875 36.0419Z" fill="#60BF7D"/>
</svg>
